<svg width="33" height="29" viewBox="0 0 33 29" fill="none" xmlns="http://www.w3.org/2000/svg">
<path d="M17.1831 3.22222H31.35C31.7876 3.22222 32.2073 3.39196 32.5167 3.69411C32.8262 3.99625 33 4.40604 33 4.83333V27.3889C33 27.8162 32.8262 28.226 32.5167 28.5281C32.2073 28.8303 31.7876 29 31.35 29H1.65C1.21239 29 0.792709 28.8303 0.483274 28.5281C0.173839 28.226 0 27.8162 0 27.3889V1.61111C0 1.18382 0.173839 0.774025 0.483274 0.471883C0.792709 0.169742 1.21239 0 1.65 0H13.8831L17.1831 3.22222ZM18.15 16.1111V9.66667H14.85V16.1111H9.9L16.5 22.5556L23.1 16.1111H18.15Z" fill="black"/>
</svg>
