<svg width="26" height="26" viewBox="0 0 26 26" fill="none" xmlns="http://www.w3.org/2000/svg">
<path d="M5.421 20.7981C5.68958 20.0371 6.18766 19.3781 6.84658 18.912C7.5055 18.4459 8.29281 18.1955 9.1 18.1955C9.90719 18.1955 10.6945 18.4459 11.3534 18.912C12.0123 19.3781 12.5104 20.0371 12.779 20.7981H26V23.3975H12.779C12.5104 24.1585 12.0123 24.8174 11.3534 25.2836C10.6945 25.7497 9.90719 26 9.1 26C8.29281 26 7.5055 25.7497 6.84658 25.2836C6.18766 24.8174 5.68958 24.1585 5.421 23.3975H0V20.7981H5.421ZM13.221 11.7003C13.4896 10.9393 13.9877 10.2803 14.6466 9.81421C15.3055 9.34808 16.0928 9.09777 16.9 9.09777C17.7072 9.09777 18.4945 9.34808 19.1534 9.81421C19.8123 10.2803 20.3104 10.9393 20.579 11.7003H26V14.2997H20.579C20.3104 15.0607 19.8123 15.7197 19.1534 16.1858C18.4945 16.6519 17.7072 16.9022 16.9 16.9022C16.0928 16.9022 15.3055 16.6519 14.6466 16.1858C13.9877 15.7197 13.4896 15.0607 13.221 14.2997H0V11.7003H13.221ZM5.421 2.60255C5.68958 1.84154 6.18766 1.18256 6.84658 0.716437C7.5055 0.250313 8.29281 0 9.1 0C9.90719 0 10.6945 0.250313 11.3534 0.716437C12.0123 1.18256 12.5104 1.84154 12.779 2.60255H26V5.20191H12.779C12.5104 5.96292 12.0123 6.6219 11.3534 7.08802C10.6945 7.55415 9.90719 7.80446 9.1 7.80446C8.29281 7.80446 7.5055 7.55415 6.84658 7.08802C6.18766 6.6219 5.68958 5.96292 5.421 5.20191H0V2.60255H5.421Z" fill="black"/>
</svg>
