<svg width="25" height="20" viewBox="0 0 25 20" fill="none" xmlns="http://www.w3.org/2000/svg">
<path d="M14.8 0H12.2C9 0 7 2 7 5.2V9.25H13.25C13.66 9.25 14 9.59 14 10C14 10.41 13.66 10.75 13.25 10.75H7V14.8C7 18 9 20 12.2 20H14.79C17.99 20 19.99 18 19.99 14.8V5.2C20 2 18 0 14.8 0Z" fill="#F6F5F8"/>
<path d="M2.5575 9.25005L4.6275 7.18005C4.7775 7.03005 4.8475 6.84004 4.8475 6.65004C4.8475 6.46004 4.7775 6.26005 4.6275 6.12005C4.48636 5.98056 4.29593 5.90234 4.0975 5.90234C3.89907 5.90234 3.70864 5.98056 3.5675 6.12005L0.2175 9.47005C-0.0725 9.76005 -0.0725 10.24 0.2175 10.53L3.5675 13.88C3.8575 14.17 4.3375 14.17 4.6275 13.88C4.9175 13.59 4.9175 13.11 4.6275 12.82L2.5575 10.75H6.9975V9.25005H2.5575Z" fill="#F6F5F8"/>
</svg>
