<svg width="28" height="28" viewBox="0 0 28 28" fill="none" xmlns="http://www.w3.org/2000/svg">
<path d="M14 28C6.2678 28 0 21.7322 0 14C0 6.2678 6.2678 0 14 0C21.7322 0 28 6.2678 28 14C28 21.7322 21.7322 28 14 28ZM22.897 19.5328V19.3858C22.897 18.095 22.897 17.5056 21.9842 16.9834C21.6908 16.8171 21.3895 16.6652 21.0812 16.5284C20.5674 16.2946 20.2272 16.142 19.768 15.47C19.7132 15.3902 19.659 15.3099 19.6056 15.2292C19.1226 14.4942 18.774 13.965 17.4468 14.175C14.8358 14.5894 14.6426 15.0486 14.5278 15.8242L14.5096 15.9516C14.3402 17.0856 14.3094 17.4664 14.7826 17.9634C16.5536 19.8212 17.6148 21.161 17.9368 21.945C18.0936 22.3272 18.4968 23.485 18.2196 24.6302C19.919 23.9533 21.4316 22.8795 22.631 21.4984C22.785 20.9748 22.897 20.3224 22.897 19.5328ZM14 2.5662C10.7562 2.5662 7.826 3.9186 5.7456 6.0886C5.9934 6.2608 6.209 6.503 6.3574 6.8362C6.643 7.476 6.643 8.1354 6.643 8.7192C6.643 9.1784 6.643 9.6152 6.79 9.9302C6.9916 10.3614 7.8624 10.5462 8.631 10.7058C8.9068 10.7646 9.1896 10.8234 9.4472 10.8948C10.1556 11.0908 10.7044 11.7278 11.1426 12.2388C11.3246 12.4502 11.5948 12.7624 11.7306 12.8408C11.8006 12.7904 12.026 12.5454 12.1366 12.1436C12.2234 11.8356 12.1982 11.564 12.0736 11.4156C11.2896 10.4916 11.333 8.7136 11.5752 8.057C11.956 7.0224 13.146 7.0994 14.0168 7.1554C14.3416 7.1764 14.6468 7.1974 14.8764 7.168C15.7472 7.0588 16.016 5.733 16.205 5.474C16.6138 4.914 17.8654 4.0698 18.641 3.549C17.1801 2.89939 15.5988 2.56453 14 2.5662Z" fill="black"/>
</svg>
