<svg width="30" height="23" viewBox="0 0 30 23" fill="none" xmlns="http://www.w3.org/2000/svg">
<path fill-rule="evenodd" clip-rule="evenodd" d="M0 0V23H4.92419V14.8467H8.51865L12.9303 23H18.3662L13.4247 14.0647C13.4957 14.0342 13.5659 14.0029 13.6353 13.9707C14.9014 13.3867 15.8681 12.5482 16.5353 11.4551C17.2024 10.3545 17.536 9.04053 17.536 7.51318C17.536 5.99333 17.2062 4.67187 16.5466 3.54883C15.8946 2.41829 14.9431 1.54606 13.6922 0.932129C12.4488 0.31071 10.9477 0 9.18878 0H0ZM4.92419 10.9385H8.26763C9.20773 10.9385 9.98863 10.8112 10.6103 10.5566C11.232 10.3021 11.6945 9.92025 11.9977 9.41113C12.3086 8.90202 12.464 8.26937 12.464 7.51318C12.464 6.74951 12.3086 6.10563 11.9977 5.58154C11.6945 5.05745 11.2282 4.66064 10.5989 4.39111C9.97726 4.1141 9.19257 3.97559 8.24488 3.97559H4.92419V10.9385Z" fill="white"/>
<path d="M25.997 23C28.2078 23 30 21.2301 30 19.0469C30 16.8636 28.2078 15.0937 25.997 15.0937C23.7862 15.0937 21.9939 16.8636 21.9939 19.0469C21.9939 21.2301 23.7862 23 25.997 23Z" fill="white"/>
</svg>
