<svg width="28" height="28" viewBox="0 0 28 28" fill="none" xmlns="http://www.w3.org/2000/svg">
<path d="M26.6808 11.4312H25.2698C24.6285 11.4312 23.9871 11.0459 23.7306 10.4037C23.7306 10.2752 23.6023 10.1468 23.6023 10.0183C23.3457 9.37615 23.474 8.6055 23.9871 8.22018L25.0133 7.19266C25.6547 6.55046 25.6547 5.52294 25.0133 4.88073L23.6023 3.46789C22.9609 2.82569 21.9347 2.82569 21.2934 3.46789L20.3955 4.49541C19.8824 5.00917 19.241 5.13761 18.5996 4.88073C18.4714 4.75229 18.3431 4.75229 18.2148 4.75229C17.5734 4.49541 17.1886 3.85321 17.1886 3.21101V1.66972C17.1886 0.770642 16.419 0 15.5211 0H13.4687C12.186 0 11.4163 0.770642 11.4163 1.66972V3.08257C11.4163 3.72477 11.0315 4.36697 10.3901 4.62385C10.2619 4.62385 10.1336 4.75229 10.0053 4.75229C9.36395 5.00917 8.72258 4.88073 8.20949 4.36697L7.1833 3.46789C6.54194 2.82569 5.51575 2.82569 4.87438 3.46789L3.46338 4.88073C2.82201 5.52294 2.82201 6.55046 3.46338 7.19266L4.48956 8.22018C5.00266 8.73395 5.13093 9.37615 4.87438 10.0183C4.74611 10.1468 4.61784 10.2752 4.61784 10.4037C4.36129 11.0459 3.71993 11.4312 3.07856 11.4312H1.66755C0.76964 11.4312 0 12.2018 0 13.1009V15.156C0 16.055 0.76964 16.8257 1.66755 16.8257H3.07856C3.71993 16.8257 4.36129 17.211 4.61784 17.8532C4.61784 17.9817 4.74611 18.1101 4.74611 18.2385C5.00266 18.8807 4.87438 19.6514 4.36129 20.0367L3.33511 20.9358C2.69374 21.578 2.69374 22.6055 3.33511 23.2477L4.74611 24.6606C5.38748 25.3028 6.41366 25.3028 7.05503 24.6606L8.08122 23.633C8.59431 23.1193 9.23568 22.9908 9.87704 23.2477C10.0053 23.2477 10.1336 23.3761 10.2619 23.3761C10.9032 23.633 11.288 24.2752 11.288 24.9174V26.3303C11.288 27.2294 12.0577 28 12.9556 28H15.008C15.9059 28 16.6755 27.2294 16.6755 26.3303V24.9174C16.6755 24.2752 17.0603 23.633 17.7017 23.3761C17.83 23.3761 17.9583 23.2477 18.0865 23.2477C18.7279 22.9908 19.4975 23.1193 19.8824 23.633L20.7803 24.6606C21.4216 25.3028 22.4478 25.3028 23.0892 24.6606L24.5002 23.2477C25.1416 22.6055 25.1416 21.578 24.5002 20.9358L23.474 20.0367C22.9609 19.5229 22.8326 18.8807 23.0892 18.2385C23.0892 18.1101 23.2175 17.9817 23.2175 17.8532C23.474 17.211 24.1154 16.8257 24.7567 16.8257H26.1677C27.0657 16.8257 27.8353 16.055 27.8353 15.156V13.1009C28.3484 12.2018 27.5788 11.4312 26.6808 11.4312ZM14.1101 19.0092C11.4163 19.0092 9.36395 16.8257 9.36395 14.2569C9.36395 11.5596 11.5446 9.37615 14.1101 9.37615C16.8038 9.37615 18.9844 11.5596 18.9844 14.1284C18.9844 16.8257 16.8038 19.0092 14.1101 19.0092Z" fill="white"/>
</svg>
