<svg width="17" height="17" viewBox="0 0 17 17" fill="none" xmlns="http://www.w3.org/2000/svg">
<path d="M12.0675 0H4.94096C1.84542 0 0 1.8445 0 4.9385V12.053C0 15.1555 1.84542 17 4.94096 17H12.059C15.1546 17 17 15.1555 17 12.0615V4.9385C17.0085 1.8445 15.1631 0 12.0675 0ZM5.52775 3.723C6.40369 3.723 7.12655 4.437 7.12655 5.321C7.12655 6.205 6.4122 6.919 5.52775 6.919C4.64331 6.919 3.92896 6.188 3.92896 5.3125C3.92896 4.437 4.65182 3.723 5.52775 3.723ZM8.50424 14.518C6.2166 14.518 4.35417 12.6565 4.35417 10.37C4.35417 9.775 4.83891 9.282 5.43421 9.282H11.5573C12.1526 9.282 12.6373 9.7665 12.6373 10.37C12.6543 12.6565 10.7919 14.518 8.50424 14.518ZM11.4807 6.902C10.6048 6.902 9.88192 6.188 9.88192 5.304C9.88192 4.42 10.5963 3.706 11.4807 3.706C12.3652 3.706 13.0795 4.42 13.0795 5.304C13.0795 6.188 12.3567 6.902 11.4807 6.902Z" fill="black"/>
</svg>
